<svg data-v-423bf9ae="" xmlns="http://www.w3.org/2000/svg" viewBox="0 0 388.03523554193794 60" class="font"><!----><!----><!----><g data-v-423bf9ae="" id="f11d14df-f1a7-43d1-a0cc-117e03beb045" fill="black" transform="matrix(5.882803440093994,0,0,5.882803440093994,-6.411327838897705,-14.93680477142334)"><path d="M1.81 12.67L1.09 12.67L1.09 5.15L1.09 5.15Q1.09 2.54 3.98 2.54L3.98 2.54L3.98 2.54Q4.86 2.54 5.58 2.82L5.58 2.82L5.58 3.43L5.58 3.43Q4.90 3.16 3.97 3.16L3.97 3.16L3.97 3.16Q1.81 3.16 1.81 5.16L1.81 5.16L1.81 5.50L4.51 5.50L4.51 6.11L1.81 6.11L1.81 12.67ZM5.82 9.06L5.82 9.06Q5.82 12.13 8.45 12.13L8.45 12.13L8.45 12.13Q11.08 12.13 11.08 9.06L11.08 9.06L11.08 9.06Q11.08 6.04 8.45 6.04L8.45 6.04L8.45 6.04Q5.82 6.04 5.82 9.06L5.82 9.06ZM5.10 9.08L5.10 9.08L5.10 9.08Q5.10 5.43 8.45 5.43L8.45 5.43L8.45 5.43Q11.80 5.43 11.80 9.08L11.80 9.08L11.80 9.08Q11.80 12.74 8.45 12.74L8.45 12.74L8.45 12.74Q5.11 12.74 5.10 9.08ZM18.84 5.50L19.56 5.50L19.56 12.67L19.03 12.67L18.95 11.76L18.95 11.76Q17.71 12.67 16.19 12.67L16.19 12.67L16.19 12.67Q13.64 12.67 13.64 10.00L13.64 10.00L13.64 5.50L14.36 5.50L14.36 10.02L14.36 10.02Q14.36 12.03 16.22 12.03L16.22 12.03L16.22 12.03Q17.58 12.03 18.84 11.12L18.84 11.12L18.84 5.50ZM22.46 12.67L21.75 12.67L21.75 5.50L22.26 5.50L22.35 6.41L22.35 6.41Q23.72 5.50 25.04 5.50L25.04 5.50L25.04 5.50Q27.66 5.50 27.66 7.76L27.66 7.76L27.66 12.67L26.94 12.67L26.94 7.74L26.94 7.74Q26.94 6.14 25.01 6.14L25.01 6.14L25.01 6.14Q23.71 6.14 22.46 7.05L22.46 7.05L22.46 12.67ZM35.08 11.76L35.08 6.48L35.08 6.48Q34.04 6.11 32.92 6.11L32.92 6.11L32.92 6.11Q30.27 6.11 30.27 8.89L30.27 8.89L30.27 8.89Q30.27 12.03 32.92 12.03L32.92 12.03L32.92 12.03Q34.04 12.03 35.08 11.76L35.08 11.76ZM35.79 2.90L35.79 12.24L35.79 12.24Q34.62 12.67 32.85 12.67L32.85 12.67L32.85 12.67Q29.50 12.67 29.50 8.94L29.50 8.94L29.50 8.94Q29.50 5.50 32.91 5.50L32.91 5.50L32.91 5.50Q33.97 5.50 35.08 5.84L35.08 5.84L35.08 2.90L35.79 2.90ZM37.57 10.64L37.57 10.64L37.57 10.64Q37.57 8.50 40.41 8.50L40.41 8.50L40.41 8.50Q41.42 8.50 42.56 8.64L42.56 8.64L42.56 7.76L42.56 7.76Q42.56 6.11 40.49 6.11L40.49 6.11L40.49 6.11Q39.31 6.11 38.15 6.45L38.15 6.45L38.15 5.84L38.15 5.84Q39.31 5.50 40.49 5.50L40.49 5.50L40.49 5.50Q43.28 5.50 43.28 7.72L43.28 7.72L43.28 12.67L42.84 12.67L42.68 11.96L42.68 11.96Q41.33 12.67 40.07 12.67L40.07 12.67L40.07 12.67Q37.57 12.67 37.57 10.64ZM40.41 9.12L40.41 9.12L40.41 9.12Q38.29 9.12 38.29 10.62L38.29 10.62L38.29 10.62Q38.29 12.06 40.07 12.06L40.07 12.06L40.07 12.06Q41.38 12.06 42.56 11.36L42.56 11.36L42.56 9.26L42.56 9.26Q41.42 9.12 40.41 9.12ZM45.44 10.74L45.44 4.33L45.94 4.33L46.07 5.50L48.23 5.50L48.23 6.11L46.14 6.11L46.14 10.64L46.14 10.64Q46.14 12.06 47.17 12.06L47.17 12.06L48.23 12.06L48.23 12.67L47.19 12.67L47.19 12.67Q45.44 12.67 45.44 10.74L45.44 10.74ZM49.82 2.90L50.67 2.90L50.67 3.72L49.82 3.72L49.82 2.90ZM49.89 5.50L50.61 5.50L50.61 12.67L49.89 12.67L49.89 5.50ZM53.31 9.06L53.31 9.06Q53.31 12.13 55.94 12.13L55.94 12.13L55.94 12.13Q58.57 12.13 58.57 9.06L58.57 9.06L58.57 9.06Q58.57 6.04 55.94 6.04L55.94 6.04L55.94 6.04Q53.31 6.04 53.31 9.06L53.31 9.06ZM52.59 9.08L52.59 9.08L52.59 9.08Q52.59 5.43 55.94 5.43L55.94 5.43L55.94 5.43Q59.29 5.43 59.29 9.08L59.29 9.08L59.29 9.08Q59.29 12.74 55.94 12.74L55.94 12.74L55.94 12.74Q52.60 12.74 52.59 9.08ZM61.85 12.67L61.13 12.67L61.13 5.50L61.65 5.50L61.74 6.41L61.74 6.41Q63.11 5.50 64.43 5.50L64.43 5.50L64.43 5.50Q67.05 5.50 67.05 7.76L67.05 7.76L67.05 12.67L66.33 12.67L66.33 7.74L66.33 7.74Q66.33 6.14 64.39 6.14L64.39 6.14L64.39 6.14Q63.10 6.14 61.85 7.05L61.85 7.05L61.85 12.67Z"></path></g><!----><!----></svg>